Results
version=1
nRows=24
nColumns=24
inDegrees=yes
endheader
time	pelvis_tilt	pelvis_list	pelvis_rotation	pelvis_tx	pelvis_ty	pelvis_tz	hip_flexion_r	hip_adduction_r	hip_rotation_r	knee_angle_r	ankle_angle_r	subtalar_angle_r	mtp_angle_r	hip_flexion_l	hip_adduction_l	hip_rotation_l	knee_angle_l	ankle_angle_l	subtalar_angle_l	mtp_angle_l	lumbar_extension	lumbar_bending	lumbar_rotation
      0.96166667	     -4.69019946	      0.41305599	      1.54865113	     -0.37139351	      1.00830451	      0.36608808	     15.64061194	      1.90445367	      0.42261682	    -20.76685637	      9.34442007	    -12.01809284	     -0.16434127	     19.06058664	     -0.43597369	     -0.33415840	    -65.02679334	     -1.74600251	    -10.56059915	      4.07401333	     -8.36125268	      7.17058233	     -0.41786491
      0.96583333	     -4.68097378	      0.53779010	      1.43957139	     -0.36689176	      1.00915913	      0.36657155	     15.14971988	      1.80464531	      0.42428546	    -20.34761958	      9.40229447	    -11.83535544	     -0.16251666	     19.52548734	     -0.34128082	     -0.46738044	    -64.52691323	     -1.14375891	    -10.30680109	      4.04236876	     -8.42946523	      6.98754376	     -0.21015899
      0.97000000	     -4.64598354	      0.65619916	      1.32584973	     -0.36237371	      1.01002127	      0.36705322	     14.63034422	      1.70847532	      0.40445989	    -19.92409095	      9.46084621	    -11.63993648	     -0.15740575	     19.94776456	     -0.25934543	     -0.60388717	    -63.97879646	     -0.54812933	    -10.01857064	      4.00546435	     -8.51452429	      6.79839232	      0.01507205
      0.97416667	     -4.63427093	      0.77778308	      1.21464813	     -0.35788926	      1.01079483	      0.36750612	     14.14539373	      1.60477950	      0.38947458	    -19.51557418	      9.51782261	    -11.43535559	     -0.14918922	     20.38982067	     -0.16661484	     -0.72333951	    -63.39564758	      0.01129181	     -9.72575081	      3.97319356	     -8.58583606	      6.61786897	      0.21751116
      0.97833333	     -4.60642996	      0.89251776	      1.10611203	     -0.35338041	      1.01155566	      0.36794602	     13.64008025	      1.50521718	      0.35836968	    -19.10210030	      9.57872079	    -11.22684108	     -0.13788782	     20.80181732	     -0.08460453	     -0.84134894	    -62.77106886	      0.53218692	     -9.43811127	      3.94350345	     -8.66608986	      6.44424185	      0.40860215
      0.98250000	     -4.57538891	      0.99225765	      0.99844036	     -0.34888510	      1.01227435	      0.36836303	     13.13215171	      1.41820515	      0.32575119	    -18.68541244	      9.63107727	    -11.01931032	     -0.12325891	     21.20258829	     -0.01626133	     -0.94337174	    -62.11197977	      1.02924698	     -9.13163238	      3.91653578	     -8.75232626	      6.29404392	      0.59857058
      0.98666667	     -4.54449758	      1.09300577	      0.89262203	     -0.34438157	      1.01294487	      0.36876858	     12.62770460	      1.32734675	      0.28292600	    -18.27669776	      9.69995665	    -10.80156855	     -0.10385142	     21.59233405	      0.05342352	     -1.04045377	    -61.41577190	      1.48010761	     -8.84374593	      3.88850413	     -8.83533230	      6.13522717	      0.78325475
      0.99083333	     -4.54314853	      1.20544939	      0.78270575	     -0.33989098	      1.01352502	      0.36914603	     12.16703939	      1.21956203	      0.23647714	    -17.88826068	      9.72021993	    -10.58178038	     -0.08805602	     22.00113115	      0.14234026	     -1.12912038	    -60.67688291	      1.88987680	     -8.57890207	      3.87460124	     -8.88084669	      5.97760798	      0.91888497
      0.99500000	     -4.49961392	      1.26716551	      0.68156596	     -0.33538162	      1.01410813	      0.36952498	     11.64741322	      1.16692213	      0.18623320	    -17.47681520	      9.83438279	    -10.35185747	     -0.05948956	     22.36198018	      0.16965557	     -1.20201368	    -59.92483453	      2.28380564	     -8.27092105	      3.85006732	     -8.97653970	      5.86703145	      1.13456212
      0.99916667	     -4.47978053	      1.35779963	      0.57408812	     -0.33087881	      1.01461061	      0.36987232	     11.16768899	      1.07815704	      0.13253372	    -17.09276340	      9.91492159	    -10.11523821	     -0.02609550	     22.73106637	      0.23525128	     -1.27088731	    -59.12347690	      2.62347545	     -8.00898719	      3.82478643	     -9.04303394	      5.72967639	      1.31539327
      1.00333333	     -4.43208790	      1.43299982	      0.47123924	     -0.32635936	      1.01512944	      0.37020562	     10.65020631	      1.00429777	      0.07081256	    -16.69284284	      9.98149644	     -9.88368022	      0.00785890	     23.05643267	      0.28659717	     -1.32426579	    -58.28488158	      2.92411433	     -7.76077391	      3.80471143	     -9.13691776	      5.61307527	      1.47681125
      1.00750000	     -4.41273786	      1.50763650	      0.36269178	     -0.32184219	      1.01555596	      0.37051567	     10.17144468	      0.92834949	      0.01508703	    -16.30829133	     10.01833304	     -9.65579006	      0.03571589	     23.39980670	      0.34145029	     -1.36850524	    -57.41181964	      3.17928338	     -7.53780595	      3.79300058	     -9.19385968	      5.51237530	      1.61606586
      1.01166667	     -4.36017509	      1.57652063	      0.25882947	     -0.31732027	      1.01596902	      0.37082208	      9.65573375	      0.85692980	     -0.05253145	    -15.92575493	     10.14908758	     -9.39821189	      0.07934951	     23.69824924	      0.38812098	     -1.40659551	    -56.51321936	      3.41334459	     -7.32514158	      3.77612013	     -9.29987901	      5.39146451	      1.80521409
      1.01583333	     -4.34206854	      1.64073288	      0.15080797	     -0.31279398	      1.01629670	      0.37109925	      9.18237347	      0.78769371	     -0.11138106	    -15.55056231	     10.18872114	     -9.16124361	      0.11021892	     24.01904549	      0.43584722	     -1.42848200	    -55.57724332	      3.59051474	     -7.14768943	      3.76724329	     -9.35370196	      5.30330512	      1.93713278
      1.02000000	     -4.26952998	      1.69229015	      0.04556046	     -0.30824925	      1.01665361	      0.37137321	      8.64366620	      0.73117707	     -0.17892398	    -15.16840898	     10.32840280	     -8.90055578	      0.15833457	     24.26848403	      0.46949032	     -1.44110344	    -54.61368315	      3.75376298	     -6.98989924	      3.75430067	     -9.47863589	      5.20953189	      2.12603426
      1.02416667	     -4.22540586	      1.74123361	     -0.06195652	     -0.30371333	      1.01691401	      0.37162839	      8.14310372	      0.67521382	     -0.24087945	    -14.79926895	     10.43045732	     -8.64835674	      0.20821864	     24.53758423	      0.50390488	     -1.44159483	    -53.62151745	      3.87607512	     -6.86095260	      3.74206861	     -9.56731879	      5.12832212	      2.29271741
      1.02833333	     -4.17145807	      1.78748121	     -0.17272952	     -0.29916345	      1.01715602	      0.37187084	      7.62988948	      0.62047465	     -0.29587968	    -14.42678156	     10.53274524	     -8.39186678	      0.26071480	     24.77921118	      0.53765084	     -1.43108071	    -52.59295006	      3.96049996	     -6.76630231	      3.73059615	     -9.66719707	      5.05055600	      2.45803566
      1.03250000	     -4.15824769	      1.82749598	     -0.28661245	     -0.29461626	      1.01729081	      0.37210294	      7.16831674	      0.57220468	     -0.34353380	    -14.06927089	     10.59322970	     -8.15140870	      0.29848673	     25.05320372	      0.56507085	     -1.40998867	    -51.53769306	      4.01087491	     -6.67476882	      3.72298858	     -9.71216453	      4.99150016	      2.59248188
      1.03666667	     -4.07825295	      1.86144367	     -0.39453451	     -0.29005624	      1.01746512	      0.37232039	      6.62901812	      0.52714288	     -0.40305495	    -13.70602355	     10.75576326	     -7.88457531	      0.35726162	     25.24096276	      0.59070888	     -1.37179617	    -50.45412768	      4.04351486	     -6.64597877	      3.71135401	     -9.84667186	      4.92223623	      2.78237039
      1.04083333	     -4.03412867	      1.90471604	     -0.51103411	     -0.28548394	      1.01755833	      0.37252627	      6.13690057	      0.47064899	     -0.45093294	    -13.35773569	     10.83635301	     -7.63416494	      0.39925839	     25.44715897	      0.62581290	     -1.32878688	    -49.32798827	      4.03259031	     -6.61031280	      3.70159930	     -9.92206314	      4.85396727	      2.92170871
      1.04500000	     -3.96580961	      1.92852214	     -0.62254991	     -0.28091639	      1.01762350	      0.37271845	      5.61721028	      0.43360602	     -0.50056927	    -13.01005345	     11.00092207	     -7.37441969	      0.45574167	     25.61866432	      0.64399955	     -1.26538956	    -48.18567028	      4.00467930	     -6.63840543	      3.68825106	    -10.04184850	      4.80047647	      3.10638768
      1.04916667	     -3.93436586	      1.95184504	     -0.73514091	     -0.27634218	      1.01759061	      0.37289520	      5.14305870	      0.39575682	     -0.54461952	    -12.67336872	     11.13684391	     -7.11784496	      0.51326665	     25.81498604	      0.66202971	     -1.19309510	    -47.01214215	      3.94297574	     -6.67923816	      3.67248000	    -10.11675219	      4.75196602	      3.28020083
      1.05333333	     -3.88571949	      1.96330254	     -0.85247798	     -0.27176386	      1.01753911	      0.37307897	      4.65140732	      0.37096781	     -0.57636827	    -12.33737415	     11.23079510	     -6.88154512	      0.55546804	     25.97734412	      0.66406199	     -1.11184607	    -45.81025716	      3.85869044	     -6.70635840	      3.65750700	    -10.19665257	      4.71301905	      3.42389012
      1.05750000	     -3.81840911	      1.97727475	     -0.96413189	     -0.26717215	      1.01748018	      0.37323421	      4.13596888	      0.34039478	     -0.61242528	    -11.99833462	     11.40052791	     -6.64248797	      0.61078176	     26.10094949	      0.67701783	     -1.00749534	    -44.57328494	      3.74696577	     -6.81456237	      3.63536763	    -10.31992943	      4.67759477	      3.61295944
